<?xml version="1.0" encoding="UTF-8"?>
<svg version="1.1" xmlns="http://www.w3.org/2000/svg" width="936" height="270">
<path d="M0 0 C308.88 0 617.76 0 936 0 C936 89.1 936 178.2 936 270 C627.12 270 318.24 270 0 270 C0 180.9 0 91.8 0 0 Z " fill="#FAECED" transform="translate(0,0)"/>
<path d="M0 0 C0.87366211 0.00950684 1.74732422 0.01901367 2.64746094 0.02880859 C14.32648535 0.4028314 23.49980527 5.11308418 31.83203125 13.1484375 C39.70762035 21.64211081 42.53388816 30.84500845 42.39453125 42.18359375 C41.71697852 53.24176559 36.38973033 61.78113455 28.5 69.375 C18.41405473 77.74040166 6.04439924 79.39860105 -6.56542969 78.78466797 C-15.41971963 77.90924382 -23.59930899 72.72637997 -29.8125 66.5625 C-38.62968173 55.65703838 -40.86531672 44.36449453 -39.8125 30.5625 C-38.90743908 27.2376907 -37.60740911 24.49233446 -35.8125 21.5625 C-35.173125 20.49 -34.53375 19.4175 -33.875 18.3125 C-25.49114891 7.13403188 -14.13913679 -0.24944968 0 0 Z " fill="#565555" transform="translate(398.8125,94.4375)"/>
<path d="M0 0 C3.28769065 0.43835875 4.95806818 1.40299075 7 4 C7.36914349 6.29008007 7.36914349 6.29008007 7.36076355 9.03031921 C7.36488754 10.06938416 7.36901154 11.1084491 7.3732605 12.17900085 C7.36247467 13.31835587 7.35168884 14.45771088 7.34057617 15.6315918 C7.34123329 17.43178268 7.34123329 17.43178268 7.34190369 19.26834106 C7.34017051 22.55960168 7.32511531 25.85029925 7.30418181 29.14146018 C7.28544047 32.58076558 7.28366659 36.0200783 7.28010559 39.45942688 C7.27077761 45.97239581 7.24615376 52.48521386 7.21605712 58.99811631 C7.18253644 66.41277562 7.16603299 73.82744209 7.15097082 81.24215829 C7.11960474 96.49487448 7.06458342 111.7473828 7 127 C-7.85 127 -22.7 127 -38 127 C-38.40108809 106.72722515 -38.40108809 106.72722515 -38.48828125 98.03320312 C-38.54788516 92.11830056 -38.61810593 86.20495729 -38.75439453 80.29125977 C-38.86368095 75.51891936 -38.9229704 70.7482521 -38.94877243 65.97475624 C-38.96713946 64.16100044 -39.00300849 62.3473283 -39.05730057 60.53429222 C-39.51573326 44.57936684 -39.51573326 44.57936684 -33.22412109 37.64575195 C-31.49510681 36.08338057 -29.7539258 34.53435295 -28 33 C-26.4453142 31.17412483 -24.91966207 29.32272244 -23.4375 27.4375 C-19.86021161 23.00518311 -16.1177974 18.77445031 -12.28125 14.56640625 C-8.98474735 10.85784077 -5.86764531 7.01151234 -2.75 3.15234375 C-1 1 -1 1 0 0 Z " fill="#555555" transform="translate(205,94)"/>
<path d="M0 0 C6.93 0 13.86 0 21 0 C21.33 19.14 21.66 38.28 22 58 C30.69818401 47.74731922 30.69818401 47.74731922 39.1484375 37.31640625 C39.75945313 36.55199219 40.37046875 35.78757813 41 35 C41.63550781 33.92363281 42.27101563 32.84726563 42.92578125 31.73828125 C44.81655589 29.47790039 45.79209183 29.03618772 48.7421875 28.52270508 C52.1180406 28.40862134 55.43807719 28.47754623 58.8125 28.625 C60.56723633 28.66560547 60.56723633 28.66560547 62.35742188 28.70703125 C65.24016135 28.77762895 68.11913571 28.87619426 71 29 C67.59637436 33.65372944 64.13716469 38.10083434 60.1875 42.3125 C55.89787975 46.95850864 51.86240135 51.75257327 47.91015625 56.6875 C46 59 46 59 44.18359375 60.5625 C42.80911158 61.91985031 42.80911158 61.91985031 43.0078125 63.7890625 C44.46479864 67.03573241 46.64082236 69.63922572 48.875 72.375 C49.8764554 73.62487717 50.87775289 74.87488088 51.87890625 76.125 C52.65258545 77.0840625 52.65258545 77.0840625 53.44189453 78.0625 C55.92293585 81.14766828 58.36822385 84.26067622 60.8125 87.375 C61.27035889 87.95773682 61.72821777 88.54047363 62.19995117 89.14086914 C72 101.63168798 72 101.63168798 72 103 C50.87393914 105.21355387 50.87393914 105.21355387 44.84912109 101.77099609 C41.44033823 98.6421475 39.18101276 94.85126951 37.00830078 90.80029297 C35.54525675 88.18806859 33.70378066 85.93821021 31.8125 83.625 C30.87462181 82.41696018 29.93694924 81.20876045 29 80 C24.06123269 83.53241515 24.06123269 83.53241515 21.68115234 88.90112305 C21.634021 89.94586792 21.634021 89.94586792 21.5859375 91.01171875 C21.53252197 92.03591919 21.53252197 92.03591919 21.47802734 93.08081055 C21.44402832 93.94101807 21.4100293 94.80122559 21.375 95.6875 C21.25125 98.430625 21.1275 101.17375 21 104 C14.07 104 7.14 104 0 104 C0 69.68 0 35.36 0 0 Z " fill="#565656" transform="translate(590,68)"/>
<path d="M0 0 C-0.71592482 7.8486573 -2.08654447 15.55510244 -3.52905273 23.29589844 C-3.94144602 25.52129391 -4.34088516 27.74879403 -4.74023438 29.9765625 C-5.001815 31.3907712 -5.26415648 32.80483942 -5.52734375 34.21875 C-5.87913696 36.1359082 -5.87913696 36.1359082 -6.23803711 38.09179688 C-6.48948486 39.05150391 -6.74093262 40.01121094 -7 41 C-7.99 41.495 -7.99 41.495 -9 42 C-10.33897583 41.04956626 -11.67105427 40.08940853 -13 39.125 C-14.11375 38.32449219 -14.11375 38.32449219 -15.25 37.5078125 C-15.8275 37.01023438 -16.405 36.51265625 -17 36 C-17 35.34 -17 34.68 -17 34 C-20.82435804 36.05064716 -23.15108495 38.10283317 -25.75 41.5625 C-28.52491143 45.15478684 -31.37245308 48.58894961 -34.4375 51.9375 C-37.57402464 55.37530316 -40.57367087 58.88153042 -43.5 62.5 C-46.4081338 66.0947765 -49.38541332 69.58260628 -52.5 73 C-57.2080942 78.1690265 -61.60349062 83.56601645 -66 89 C-67.65879108 91.00678921 -69.32790465 93.00427329 -71 95 C-74.8609318 94.42585189 -77.51051801 93.31493893 -80.80078125 91.234375 C-81.69603516 90.67363281 -82.59128906 90.11289063 -83.51367188 89.53515625 C-84.43728516 88.94605469 -85.36089844 88.35695313 -86.3125 87.75 C-87.22451172 87.17636719 -88.13652344 86.60273438 -89.07617188 86.01171875 C-89.97529297 85.44582031 -90.87441406 84.87992187 -91.80078125 84.296875 C-92.68072754 83.74451172 -93.56067383 83.19214844 -94.46728516 82.62304688 C-96.10105906 81.57607089 -97.71726407 80.50090185 -99.31005859 79.39257812 C-100.00566895 78.91755859 -100.7012793 78.44253906 -101.41796875 77.953125 C-102.01762451 77.52676758 -102.61728027 77.10041016 -103.23510742 76.66113281 C-105.04207164 75.76779556 -105.04207164 75.76779556 -107.03881836 76.72802734 C-110.04329487 78.67665459 -112.68998991 81.01815781 -115.375 83.375 C-116.63271772 84.46625508 -117.89053292 85.55739782 -119.1484375 86.6484375 C-119.7887793 87.2062793 -120.42912109 87.76412109 -121.08886719 88.33886719 C-124.04546008 90.90870087 -127.02308668 93.45376755 -130 96 C-131.16678172 96.99986575 -132.33344806 97.99986617 -133.5 99 C-135.83333333 101 -138.16666667 103 -140.5 105 C-141.07782227 105.49532227 -141.65564453 105.99064453 -142.25097656 106.50097656 C-143.41420412 107.49793597 -144.57761473 108.49468183 -145.74121094 109.49121094 C-148.71205617 112.03598537 -151.67933698 114.58473256 -154.640625 117.140625 C-174.195081 134 -174.195081 134 -176 134 C-178.20801485 117.59526743 -178.20801485 117.59526743 -174.75341797 111.97021484 C-171.34624406 108.20143785 -167.24368481 105.33637907 -163.07373047 102.46923828 C-159.83681478 100.17588313 -156.90932389 97.55914892 -153.9375 94.9375 C-152.78164804 93.94463195 -151.62409467 92.95374114 -150.46484375 91.96484375 C-147.55898788 89.47867707 -144.65477971 86.99059827 -141.75146484 84.50146484 C-140.58660944 83.50287817 -139.42157121 82.50450472 -138.25634766 81.50634766 C-135.29911478 78.97287723 -132.34452942 76.43642376 -129.39453125 73.89453125 C-122.34430358 67.8252547 -115.23604232 61.84790359 -108 56 C-103.08981895 57.66250225 -99.04335189 60.41670864 -94.75 63.25 C-93.99509277 63.74145508 -93.24018555 64.23291016 -92.46240234 64.73925781 C-87.79331361 67.78628319 -83.17847516 70.89847618 -78.6640625 74.171875 C-76.82204504 75.33277967 -76.82204504 75.33277967 -74 74 C-72.56197818 72.4089357 -71.19674665 70.7513985 -69.875 69.0625 C-66.84926458 65.2680907 -63.77602274 61.58063538 -60.5 58 C-57.38541332 54.58260628 -54.4081338 51.0947765 -51.5 47.5 C-47.83187924 42.9676623 -44.01093912 38.61530331 -40.0859375 34.3046875 C-37.32633903 31.25569294 -34.65928666 28.13659453 -32 25 C-33.37806808 21.78450781 -34.88609739 20.02779999 -37.625 17.875 C-39.5390625 16.3671875 -39.5390625 16.3671875 -41 15 C-41 14.34 -41 13.68 -41 13 C-40.41621582 12.80889648 -39.83243164 12.61779297 -39.23095703 12.42089844 C-36.52786813 11.53392237 -33.82643999 10.6419849 -31.125 9.75 C-29.74828125 9.29947266 -29.74828125 9.29947266 -28.34375 8.83984375 C-22.87283706 7.02904862 -17.50793952 5.06475447 -12.1809082 2.86523438 C-8.16708056 1.27282363 -4.35510723 0 0 0 Z " fill="#585758" transform="translate(224,46)"/>
<path d="M0 0 C7.92 0 15.84 0 24 0 C26.08194633 5.26504509 28.16345953 10.53025732 30.24389648 15.79589844 C30.95067776 17.5844087 31.65770502 19.37282178 32.36499023 21.16113281 C33.38591316 23.74257853 34.40592926 26.32438103 35.42578125 28.90625 C35.73840408 29.69616333 36.05102692 30.48607666 36.37312317 31.29992676 C38.30018406 36.18162034 40.17008676 41.08103642 42 46 C43.65988344 43.51017484 44.5915005 41.68121093 45.58813477 38.92749023 C45.88506729 38.11332138 46.18199982 37.29915253 46.4879303 36.46031189 C46.80257736 35.5852449 47.11722443 34.71017792 47.44140625 33.80859375 C47.76914536 32.9075441 48.09688446 32.00649445 48.43455505 31.07814026 C49.48097064 28.19927778 50.52196187 25.31849146 51.5625 22.4375 C52.60757049 19.55329743 53.65376247 16.6695076 54.70115662 13.78614807 C55.35268101 11.99158222 56.00267698 10.19646061 56.65101624 8.40074158 C57.09168678 7.18421654 57.09168678 7.18421654 57.54125977 5.94311523 C57.79948013 5.22824448 58.0577005 4.51337372 58.32374573 3.77684021 C59 2 59 2 60 0 C67.92 0 75.84 0 84 0 C82.06375386 5.80873842 80.09987072 11.40547638 77.7265625 17.01953125 C77.06963714 18.59105429 76.41273738 20.16258803 75.75585938 21.73413086 C75.40934326 22.55976532 75.06282715 23.38539978 74.70581055 24.23605347 C66.18289397 44.55306363 57.91757619 64.97179583 49.69384766 85.41137695 C49.25485138 86.50187347 48.8158551 87.59237 48.36355591 88.71591187 C47.53510771 90.77441917 46.70749292 92.83326214 45.88082886 94.89248657 C45.51474518 95.80251434 45.1486615 96.71254211 44.77148438 97.65014648 C44.2921344 98.84364967 44.2921344 98.84364967 43.80310059 100.06126404 C43.25049721 101.39528379 42.64575215 102.7084957 42 104 C34.41 104 26.82 104 19 104 C22.28824021 94.99648515 25.5846185 86.38056078 29.99609375 77.8671875 C32.14938207 71.71732902 28.95905485 66.1786514 26.38671875 60.61328125 C26.02059982 59.80603104 25.6544809 58.99878082 25.27726746 58.16706848 C24.49288567 56.43980877 23.70527791 54.71401103 22.91473389 52.98956299 C21.6810705 50.29847481 20.45580269 47.60371292 19.23291016 44.90771484 C17.59759773 41.30361071 15.95948007 37.70080651 14.31884766 34.09912109 C11.14232671 27.12045284 8.00032501 20.12671972 4.875 13.125 C4.37315186 12.01036377 3.87130371 10.89572754 3.35424805 9.74731445 C2.90476807 8.74015381 2.45528809 7.73299316 1.9921875 6.6953125 C1.60401855 5.82922363 1.21584961 4.96313477 0.81591797 4.07080078 C0 2 0 2 0 0 Z " fill="#565656" transform="translate(822,96)"/>
<path d="M0 0 C7.65072105 4.23389418 11.9306314 10.43977372 14.31036377 18.65664673 C15.42038336 23.79995357 15.30371802 28.89264318 15.23046875 34.1328125 C15.22622391 35.29505341 15.22197906 36.45729431 15.21760559 37.65475464 C15.20093926 41.33258153 15.16330894 45.00984136 15.125 48.6875 C15.10993762 51.19530453 15.09625195 53.70311774 15.08398438 56.2109375 C15.05107513 62.32834036 14.99937619 68.44532435 14.9375 74.5625 C8.0075 74.5625 1.0775 74.5625 -6.0625 74.5625 C-6.0718457 73.07927246 -6.08119141 71.59604492 -6.09082031 70.06787109 C-6.1307495 64.55487242 -6.1965176 59.04243004 -6.27001953 53.52978516 C-6.29821195 51.14574337 -6.31943503 48.76160842 -6.33349609 46.37744141 C-6.35494869 42.94645548 -6.40161364 39.51658776 -6.453125 36.0859375 C-6.45435364 35.02321625 -6.45558228 33.960495 -6.45684814 32.86557007 C-6.5761317 26.81275231 -6.99272042 23.15878952 -11.0625 18.5625 C-15.45210636 15.72216647 -21.00904418 15.91312676 -26.0625 16.5625 C-30.46086324 18.80847272 -31.79447194 21.63102709 -33.43374634 26.19848633 C-34.59240026 30.55484061 -34.54452226 34.9219632 -34.57421875 39.40625 C-34.59216995 40.41594849 -34.61012115 41.42564697 -34.62861633 42.46594238 C-34.68244099 45.66475349 -34.71652571 48.86341777 -34.75 52.0625 C-34.78319763 54.24220781 -34.81768953 56.42189631 -34.85351562 58.6015625 C-34.94056822 63.92189289 -35.00087584 69.24157235 -35.0625 74.5625 C-41.9925 74.5625 -48.9225 74.5625 -56.0625 74.5625 C-56.0625 49.8125 -56.0625 25.0625 -56.0625 -0.4375 C-49.1325 -0.4375 -42.2025 -0.4375 -35.0625 -0.4375 C-35.0625 1.5425 -35.0625 3.5225 -35.0625 5.5625 C-34.03189453 4.93021484 -34.03189453 4.93021484 -32.98046875 4.28515625 C-32.07941406 3.73730469 -31.17835938 3.18945312 -30.25 2.625 C-29.35667969 2.07972656 -28.46335937 1.53445312 -27.54296875 0.97265625 C-20.31204242 -3.13815383 -7.79060395 -3.0121843 0 0 Z " fill="#565656" transform="translate(555.0625,96.4375)"/>
<path d="M0 0 C3.31872865 1.29624826 6.28174118 2.66510391 9.29296875 4.57421875 C10.08896484 5.07759766 10.88496094 5.58097656 11.70507812 6.09960938 C12.52427734 6.62361328 13.34347656 7.14761719 14.1875 7.6875 C14.98736328 8.19216797 15.78722656 8.69683594 16.61132812 9.21679688 C18.20175259 10.22725932 19.7805133 11.25638042 21.34541321 12.30593872 C23.94342555 14.03071718 23.94342555 14.03071718 26.63725281 15.30819702 C29.62400672 16.94990037 31.7323038 18.44088542 34 21 C35.39230528 26.1168938 35.16975021 31.09583107 34.9765625 36.33984375 C34.95788841 37.83194724 34.94366455 39.32411246 34.9336853 40.81629944 C34.89567562 44.72572012 34.79762106 48.63136746 34.68664551 52.53930664 C34.56587566 57.23761248 34.52036243 61.93718743 34.46211243 66.63660431 C34.36544465 73.76035259 34.17380712 80.87583943 34 88 C19.48 88 4.96 88 -10 88 C-10.40108809 68.64527123 -10.40108809 68.64527123 -10.48828125 60.35742188 C-10.54793129 54.71444995 -10.6182753 49.07310943 -10.75439453 43.43139648 C-10.86352455 38.87950816 -10.92293718 34.32936978 -10.94877243 29.77627373 C-10.96716753 28.0445851 -11.00309315 26.31298615 -11.05730057 24.58204842 C-11.46558874 10.99710606 -11.46558874 10.99710606 -7.70721436 5.8757019 C-5.24109614 3.63901343 -2.82870818 1.747681 0 0 Z " fill="#545454" transform="translate(118,133)"/>
<path d="M0 0 C4.50485987 3.80410389 9.2190778 8.1103584 11.109375 13.78125 C5.169375 16.09125 -0.770625 18.40125 -6.890625 20.78125 C-8.540625 19.13125 -10.190625 17.48125 -11.890625 15.78125 C-17.28705284 11.08113543 -22.01601247 10.09510451 -29.12109375 10.42578125 C-35.24703567 11.2120446 -38.98574828 14.13761282 -42.890625 18.78125 C-46.06291398 24.36010304 -46.88003114 29.49945439 -45.890625 35.78125 C-43.71143169 42.27226596 -41.06079281 46.6961661 -34.890625 49.78125 C-28.70506508 51.84310331 -21.35322971 51.87854467 -15.390625 49.09375 C-12.13605018 47.20202839 -9.9907725 44.93147125 -7.890625 41.78125 C-3.40068631 42.36777352 0.33480684 43.5456038 4.484375 45.34375 C5.54398437 45.79878906 6.60359375 46.25382812 7.6953125 46.72265625 C8.49195313 47.07199219 9.28859375 47.42132813 10.109375 47.78125 C6.96736739 56.44464962 1.33939119 62.73160302 -6.890625 66.78125 C-17.14316236 71.06774798 -30.54600363 72.39041791 -41.12109375 68.421875 C-44.59027895 66.86184535 -47.7446973 64.92065513 -50.890625 62.78125 C-51.97730469 62.06388672 -51.97730469 62.06388672 -53.0859375 61.33203125 C-58.12079662 57.528642 -61.02016495 52.30471101 -63.890625 46.78125 C-64.23351562 46.17925781 -64.57640625 45.57726562 -64.9296875 44.95703125 C-68.48834048 37.55702855 -68.201461 26.75570456 -66.12890625 18.890625 C-65.19352472 16.71669481 -64.15699126 14.7775357 -62.890625 12.78125 C-62.313125 11.770625 -61.735625 10.76 -61.140625 9.71875 C-46.11393705 -9.89942593 -20.56565487 -14.71119837 0 0 Z " fill="#565555" transform="translate(337.890625,103.21875)"/>
<path d="M0 0 C6.93 0 13.86 0 21 0 C21 6.93 21 13.86 21 21 C25.95 21 30.9 21 36 21 C36 26.94 36 32.88 36 39 C31.05 39 26.1 39 21 39 C21.06898285 44.17828686 21.15700057 49.3557744 21.26245117 54.53344727 C21.29564654 56.29377355 21.32369524 58.05420488 21.34643555 59.81469727 C21.3800812 62.34957525 21.4324006 64.88349523 21.48828125 67.41796875 C21.49467117 68.20149216 21.5010611 68.98501556 21.50764465 69.7922821 C21.62884369 74.32566889 22.1133638 77.42904692 25 81 C28.37173059 81.96107596 31.46275995 81.86218545 35 82 C35 87.61 35 93.22 35 99 C31.49915355 99.10864696 28.00172828 99.18762825 24.5 99.25 C23.51773438 99.28351563 22.53546875 99.31703125 21.5234375 99.3515625 C15.18930769 99.43601756 10.21356458 98.81594029 5 95 C1.09633418 90.19548822 -0.130206 86.39498358 -0.11352539 80.32324219 C-0.11344986 79.40258972 -0.11337433 78.48193726 -0.11329651 77.53338623 C-0.10813522 76.54783752 -0.10297394 75.56228882 -0.09765625 74.546875 C-0.0962413 73.53151672 -0.09482635 72.51615845 -0.09336853 71.47003174 C-0.08777516 68.22999108 -0.07522385 64.99001975 -0.0625 61.75 C-0.05748414 59.55208433 -0.05292139 57.35416758 -0.04882812 55.15625 C-0.0378079 49.77080666 -0.02054778 44.38541508 0 39 C-2.97 39 -5.94 39 -9 39 C-9 33.06 -9 27.12 -9 21 C-6.03 21 -3.06 21 0 21 C0 14.07 0 7.14 0 0 Z " fill="#575757" transform="translate(722,74)"/>
<path d="M0 0 C6.6 0 13.2 0 20 0 C20 6.93 20 13.86 20 21 C24.95 21 29.9 21 35 21 C35 26.94 35 32.88 35 39 C30.05 39 25.1 39 20 39 C20.09363645 44.19644229 20.19975311 49.39242426 20.31738281 54.58837891 C20.35563771 56.3555607 20.3904967 58.12281944 20.421875 59.89013672 C20.46760152 62.43224563 20.52558289 64.97382648 20.5859375 67.515625 C20.59748871 68.30430969 20.60903992 69.09299438 20.62094116 69.90557861 C20.73296247 75.27133725 20.73296247 75.27133725 23 80 C25.43387753 81.21693876 27.41838846 81.31959896 30.125 81.5625 C31.73375 81.706875 33.3425 81.85125 35 82 C35 87.61 35 93.22 35 99 C31.33252724 99.1085765 27.66831194 99.18759858 24 99.25 C22.97003906 99.28351563 21.94007813 99.31703125 20.87890625 99.3515625 C14.71108709 99.43013344 8.79292053 99.32179823 4 95 C-0.54529761 88.94112031 -0.53522933 83.78635142 -0.390625 76.37890625 C-0.38496521 75.27900864 -0.37930542 74.17911102 -0.37347412 73.04588318 C-0.35117743 69.55096961 -0.30099149 66.05710097 -0.25 62.5625 C-0.22992642 60.18556174 -0.21167716 57.80860732 -0.1953125 55.43164062 C-0.15133428 49.62069435 -0.08235139 43.81052403 0 38 C-2.97 38 -5.94 38 -9 38 C-9 32.39 -9 26.78 -9 21 C-6.03 21 -3.06 21 0 21 C0 14.07 0 7.14 0 0 Z " fill="#555555" transform="translate(779,74)"/>
<path d="M0 0 C0.33 0 0.66 0 1 0 C1 21.78 1 43.56 1 66 C-13.85 66 -28.7 66 -44 66 C-45.89358761 39.36353433 -45.89358761 39.36353433 -41.15234375 33.66796875 C-38.07556664 30.81155541 -34.6408994 28.53920492 -31.07373047 26.34033203 C-27.74914888 24.19152665 -24.88449968 21.56777198 -21.9375 18.9375 C-20.79923317 17.95818987 -19.65859849 16.98162527 -18.515625 16.0078125 C-17.94650391 15.52086914 -17.37738281 15.03392578 -16.79101562 14.53222656 C-16.19998047 14.0265918 -15.60894531 13.52095703 -15 13 C-12.39537541 10.77136767 -9.79130516 8.54208961 -7.1875 6.3125 C-6.58220459 5.79486084 -5.97690918 5.27722168 -5.35327148 4.74389648 C-2.61453925 2.44009104 -2.61453925 2.44009104 0 0 Z " fill="#555555" transform="translate(92,155)"/>
<path d="M0 0 C6.93 0 13.86 0 21 0 C21 25.08 21 50.16 21 76 C14.07 76 7.14 76 0 76 C0 50.92 0 25.84 0 0 Z " fill="#585858" transform="translate(676,96)"/>
<path d="M0 0 C6.6 0 13.2 0 20 0 C20 24.75 20 49.5 20 75 C13.4 75 6.8 75 0 75 C0 50.25 0 25.5 0 0 Z " fill="#545454" transform="translate(459,96)"/>
<path d="M0 0 C5.16661421 3.20416915 9.40801365 7.09090799 11.38671875 12.94140625 C12.34283637 19.76228105 12.24646865 26.26491173 8.66015625 32.29296875 C5.03609007 36.9842446 0.40806678 40.52076342 -5.53125 41.34765625 C-12.49171952 41.54723961 -17.21150791 41.05497795 -22.8046875 36.734375 C-25.52690084 34.03567971 -27.00768259 31.42020335 -28.61328125 27.94140625 C-28.94328125 27.28140625 -29.27328125 26.62140625 -29.61328125 25.94140625 C-30.11905284 19.44418654 -30.509893 13.45040907 -26.61328125 7.94140625 C-19.39825816 -0.01361921 -10.74060163 -4.35082667 0 0 Z " fill="#F8EAEC" transform="translate(408.61328125,114.05859375)"/>
<path d="M0 0 C4.1657644 1.7588783 6.17507027 3.86989588 8 8 C8.5931368 11.98248997 8.17424115 13.67640929 6.25 17.25 C3.05882353 21.1503268 3.05882353 21.1503268 0 22 C-6.95007133 22.66191155 -6.95007133 22.66191155 -10.875 20.1875 C-13.86851436 17.1059411 -14.94031852 15.52008147 -15.4375 11.1875 C-15.33942654 6.35515326 -13.38803669 4.30736915 -10 1 C-6.80401935 -0.59799033 -3.47677244 -0.36773555 0 0 Z " fill="#585858" transform="translate(690,66)"/>
<path d="M0 0 C4.64341905 0.0742947 7.31397579 1.27418242 10.61328125 4.52734375 C12.53983351 7.44401265 12.71244107 9.81217148 12.4453125 13.25 C11.47762428 16.96168084 9.63710174 18.80692692 6.875 21.4375 C3.64640153 23.05179923 0.36506347 23.03320657 -3.125 22.4375 C-6.15008145 20.70147895 -8.54290069 18.60169863 -10.125 15.4375 C-10.54568924 12.37848826 -10.61528455 9.48991674 -10.125 6.4375 C-7.6875 3.4375 -7.6875 3.4375 -5.125 1.4375 C-3.58528172 -0.10221828 -2.14014329 0.11970293 0 0 Z " fill="#575757" transform="translate(468.125,65.5625)"/>
</svg>
